# xmcd
#
# Track frame offsets: 
#        150
#        25500
#        39975
#        59475
#        70350
#        96000
#        118650
#        136800
#        146250
#        166050
#        198975
#        215550
#        236550
#
# Disc length: 3361 seconds
#
# Revision: 6
# Processed by: cddbd v1.5.2PL0 Copyright (c) Steve Scherf et al.
# Submitted via: ExactAudioCopy v1.3
#
DISCID=af0d1f0d
DTITLE=Huelgas Ensemble, Van Nevel - Vivarte 2-10 - Codex Las Huelgas,
DTITLE=music from 13th century Spain
DYEAR=1992
DGENRE=Vocal
TTITLE0=Ex illustri nata prosapia  (Conductus Motet)
TTITLE1=Crucifigat omnes  (Conductus)
TTITLE2=O Maria maris stella  (Motet)
TTITLE3=Ex agone sanguinis  (Conductus)
TTITLE4=Belial vocatur  (Conductus Motet)
TTITLE5=Sanctus
TTITLE6=Agnus Dei
TTITLE7=Benedicamus Domino
TTITLE8=Flavit auster
TTITLE9=Eya mater  (Prosa)
TTITLE10=Quis dabit capiti  (Prosa)
TTITLE11=Casta catholica  (Conductus Motet)
TTITLE12=Homo miserabilis  (Motet)
EXTD=13th Century Spain YEAR: 1992
EXTT0=
EXTT1=
EXTT2=
EXTT3=
EXTT4=
EXTT5=
EXTT6=
EXTT7=
EXTT8=
EXTT9=
EXTT10=
EXTT11=
EXTT12=
PLAYORDER=
